<svg width="127" height="40" viewBox="0 0 127 40" fill="none" xmlns="http://www.w3.org/2000/svg">
<path d="M23.6498 14.2703C22.6834 14.9951 21.3029 14.9951 20.3365 14.2703C15.7117 10.888 10.9833 7.57463 6.32391 4.22679C3.8044 2.39755 3.18315 1.87985 5.5646 3.12234C17.5064 8.33393 26.5145 8.33393 38.4908 3.12234C40.8722 1.87985 40.251 2.43207 37.7315 4.22679C33.0376 7.57463 28.3092 10.888 23.6498 14.2703Z" fill="url(#paint0_linear)"/>
<path d="M15.9527 21.0362C16.9191 20.3804 16.8845 19.4485 15.9527 18.7583C11.3968 15.583 6.91005 12.3042 2.38874 9.05988C-0.0272259 7.29967 -0.752016 6.88551 0.870133 8.50766C7.94546 16.791 8.08352 22.7619 1.18076 31.1487C-0.406878 32.7709 0.283398 32.3567 2.66485 30.631C7.08262 27.4212 11.4659 24.1769 15.9527 21.0362Z" fill="url(#paint1_linear)"/>
<path d="M23.6498 25.7291C22.6834 25.0043 21.3029 25.0043 20.3365 25.7291C15.7117 29.1115 10.9833 32.4248 6.32391 35.7727C3.8044 37.5674 3.18315 38.1196 5.5646 36.8771C17.5064 31.6655 26.5145 31.6655 38.4908 36.8771C40.8722 38.1196 40.251 37.5674 37.7315 35.7727C33.0376 32.4248 28.3092 29.1115 23.6498 25.7291Z" fill="url(#paint2_linear)"/>
<path d="M28.0666 18.7583C27.1002 19.414 27.1002 20.3804 28.0666 21.0362C32.5534 24.1769 36.9366 27.4212 41.3544 30.631C43.7359 32.3567 44.4606 32.7709 42.8385 31.1487C35.9357 22.7619 36.1083 16.791 43.1491 8.50766C44.8058 6.88551 44.081 7.29967 41.6305 9.05988C37.1092 12.3042 32.6569 15.583 28.0666 18.7583Z" fill="url(#paint3_linear)"/>
<path d="M23.303 14.1675C22.5437 15.0303 21.5082 15.0303 20.7489 14.1675C17.1595 10.1294 13.501 6.12578 9.87709 2.12218C7.9098 -0.0521926 7.46112 -0.673441 9.29035 0.810653C18.6091 7.12668 25.4428 7.12668 34.7615 0.810653C36.5908 -0.673441 36.1421 -0.0176786 34.1748 2.12218C30.5509 6.12578 26.8924 10.0949 23.303 14.1675Z" fill="url(#paint4_linear)"/>
<path d="M16.0898 21.4155C16.8491 20.5182 16.8491 19.2757 16.0898 18.3783C12.3623 14.0986 8.73835 9.71533 5.07988 5.36659C3.11259 3.01965 2.52586 2.43292 3.83738 4.6418C9.53216 15.7207 9.6357 23.866 4.07898 35.0485C2.76746 37.2228 3.35419 36.6706 5.28697 34.3582C8.8764 30.0095 12.4313 25.6607 16.0898 21.4155Z" fill="url(#paint5_linear)"/>
<path d="M23.303 25.8327C22.5437 24.9698 21.5082 24.9698 20.7489 25.8327C17.1595 29.8708 13.501 33.8744 9.87709 37.878C7.9098 40.0524 7.46112 40.6736 9.29035 39.1895C18.6091 32.8735 25.4428 32.8735 34.7615 39.1895C36.5908 40.6736 36.1421 40.0179 34.1748 37.878C30.5509 33.8399 26.8924 29.8708 23.303 25.8327Z" fill="url(#paint6_linear)"/>
<path d="M27.9274 18.3788C27.1336 19.2762 27.1336 20.5187 27.9274 21.416C31.5859 25.6612 35.1408 30.01 38.7302 34.3242C40.663 36.6366 41.2497 37.1888 39.9382 35.0145C34.3815 23.8665 34.485 15.6867 40.1798 4.6078C41.5258 2.43343 40.9391 2.98565 38.9373 5.33259C35.2788 9.71584 31.6549 14.0991 27.9274 18.3788Z" fill="url(#paint7_linear)"/>
<path d="M52.3283 21.8302C52.6044 24.0045 54.5026 25.5577 57.5398 25.5577C59.1275 25.5577 61.2328 24.9709 62.2337 23.9355L64.9948 26.6621C63.1656 28.5604 60.1284 29.4922 57.4708 29.4922C51.4309 29.4922 47.876 25.7647 47.876 20.1735C47.876 14.8584 51.4999 11.0273 57.1602 11.0273C62.993 11.0273 66.6515 14.6513 65.9957 21.8302H52.3283ZM61.8541 18.2407C61.578 15.9628 59.7832 14.8239 57.3328 14.8239C54.9858 14.8239 53.0876 15.9628 52.4318 18.2407H61.8541Z" fill="white"/>
<path d="M78.6268 11.5449H83.8039V11.683L78.0746 20.1389L84.1835 28.9054V29.0089H79.0064L75.2099 23.1761L71.4134 29.0089H66.2363V28.9054L72.3453 20.1389L66.616 11.683V11.5449H71.7931L75.2444 17.4468L78.6268 11.5449Z" fill="white"/>
<path d="M91.1569 6.6437C91.1569 10.0261 86.0488 10.0261 86.0488 6.6437C86.0488 3.26135 91.1569 3.26135 91.1569 6.6437ZM86.4285 11.4756V29.0087H90.7772V11.4756H86.4285Z" fill="white"/>
<path d="M97.472 11.5449L97.7826 13.5812C99.1287 11.4068 100.923 11.0962 102.718 11.0962C104.513 11.0962 106.273 11.821 107.205 12.7529L105.272 16.5149C104.375 15.7556 103.581 15.3759 102.166 15.3759C99.888 15.3759 97.8172 16.5839 97.8172 19.7937V29.0089H93.5029V11.5449H97.472Z" fill="white"/>
<path d="M121.874 11.5452H126.015V29.0091H121.943L121.736 26.4551C120.735 28.5259 118.008 29.4923 116.075 29.5268C110.898 29.5614 107.067 26.3861 107.067 20.2426C107.067 14.2027 111.071 11.062 116.179 11.0965C118.526 11.0965 120.735 12.2009 121.736 13.9266L121.874 11.5452ZM111.382 20.2771C111.382 23.625 113.694 25.5923 116.559 25.5923C123.358 25.5923 123.358 14.9965 116.559 14.9965C113.694 14.9965 111.382 16.9293 111.382 20.2771Z" fill="white"/>
<defs>
<linearGradient id="paint0_linear" x1="22.0124" y1="14.798" x2="22.0124" y2="2.44577" gradientUnits="userSpaceOnUse">
<stop stop-color="#31CECD"/>
<stop offset="0.916667" stop-color="#31CECD" stop-opacity="0"/>
</linearGradient>
<linearGradient id="paint1_linear" x1="16.6757" y1="19.8296" x2="0.00728844" y2="19.8296" gradientUnits="userSpaceOnUse">
<stop stop-color="#EB1976"/>
<stop offset="0.885417" stop-color="#EB1976" stop-opacity="0"/>
</linearGradient>
<linearGradient id="paint2_linear" x1="22.0124" y1="25.1857" x2="22.0124" y2="37.5378" gradientUnits="userSpaceOnUse">
<stop stop-color="#FB9D19"/>
<stop offset="0.869792" stop-color="#FB9D19" stop-opacity="0"/>
</linearGradient>
<linearGradient id="paint3_linear" x1="27.3475" y1="19.8296" x2="44.0159" y2="19.8296" gradientUnits="userSpaceOnUse">
<stop stop-color="#177AE2"/>
<stop offset="0.901042" stop-color="#177AE2" stop-opacity="0"/>
</linearGradient>
<linearGradient id="paint4_linear" x1="22.0107" y1="14.7987" x2="22.0107" y2="-0.0176784" gradientUnits="userSpaceOnUse">
<stop stop-color="#31CECD"/>
<stop offset="0.9375" stop-color="#31CECD" stop-opacity="0"/>
</linearGradient>
<linearGradient id="paint5_linear" x1="16.6748" y1="19.8132" x2="3.11846" y2="19.8132" gradientUnits="userSpaceOnUse">
<stop stop-color="#EB1976"/>
<stop offset="0.880208" stop-color="#EB1976" stop-opacity="0"/>
</linearGradient>
<linearGradient id="paint6_linear" x1="22.0107" y1="25.1857" x2="22.0107" y2="40.0021" gradientUnits="userSpaceOnUse">
<stop stop-color="#FB9D19"/>
<stop offset="0.848958" stop-color="#FB9D19" stop-opacity="0"/>
</linearGradient>
<linearGradient id="paint7_linear" x1="27.3464" y1="19.8137" x2="40.9027" y2="19.8137" gradientUnits="userSpaceOnUse">
<stop stop-color="#177AE2"/>
<stop offset="0.901042" stop-color="#177AE2" stop-opacity="0"/>
</linearGradient>
</defs>
</svg>
