<svg width="312" height="100" viewBox="0 0 312 100" fill="none" xmlns="http://www.w3.org/2000/svg">
<path d="M58.6325 35.319C56.2406 37.1129 52.8235 37.1129 50.4316 35.319C38.9846 26.9472 27.2813 18.7464 15.7488 10.4601C9.51273 5.93252 7.97507 4.65114 13.8694 7.72646C43.4267 20.6257 65.7228 20.6257 95.3655 7.72646C101.26 4.65114 99.7222 6.01795 93.4862 10.4601C81.8683 18.7464 70.1649 26.9472 58.6325 35.319Z" fill="url(#paint0_linear)"/>
<path d="M39.5814 52.0661C41.9733 50.443 41.8879 48.1365 39.5814 46.428C28.3052 38.5688 17.1999 30.4534 6.00909 22.4234C0.0292924 18.0667 -1.76465 17.0416 2.25036 21.0566C19.7626 41.5587 20.1043 56.3374 3.01919 77.0958C-0.91039 81.1108 0.798123 80.0857 6.69249 75.8144C17.627 67.8698 28.476 59.8398 39.5814 52.0661Z" fill="url(#paint1_linear)"/>
<path d="M58.6325 63.6804C56.2406 61.8865 52.8235 61.8865 50.4316 63.6804C38.9846 72.0521 27.2813 80.253 15.7488 88.5393C9.51273 92.9814 7.97507 94.3482 13.8694 91.2729C43.4267 78.3736 65.7228 78.3736 95.3655 91.2729C101.26 94.3482 99.7222 92.9814 93.4862 88.5393C81.8683 80.253 70.1649 72.0521 58.6325 63.6804Z" fill="url(#paint2_linear)"/>
<path d="M69.5625 46.428C67.1706 48.0511 67.1706 50.443 69.5625 52.0661C80.6678 59.8398 91.5169 67.8698 102.451 75.8144C108.346 80.0857 110.14 81.1108 106.125 77.0958C89.0395 56.3374 89.4667 41.5587 106.893 21.0566C110.994 17.0416 109.2 18.0667 103.135 22.4234C91.944 30.4534 80.9241 38.5688 69.5625 46.428Z" fill="url(#paint3_linear)"/>
<path d="M57.771 35.0662C55.8917 37.2018 53.3289 37.2018 51.4495 35.0662C42.5653 25.0714 33.5101 15.162 24.5405 5.25263C19.6712 -0.129183 18.5607 -1.66684 23.0882 2.00646C46.1531 17.6394 63.0674 17.6394 86.1324 2.00646C90.6599 -1.66684 89.5494 -0.0437566 84.6801 5.25263C75.7104 15.162 66.6553 24.986 57.771 35.0662Z" fill="url(#paint4_linear)"/>
<path d="M39.9265 53.0025C41.8059 50.7815 41.8059 47.7061 39.9265 45.4851C30.7005 34.8923 21.7308 24.0432 12.6757 13.2796C7.80645 7.47065 6.35422 6.01842 9.60039 11.4857C23.6956 38.9073 23.9519 59.0678 10.1984 86.7457C6.9522 92.1275 8.40443 90.7607 13.1883 85.0372C22.0725 74.2735 30.8714 63.5099 39.9265 53.0025Z" fill="url(#paint5_linear)"/>
<path d="M57.771 63.9367C55.8917 61.8011 53.3289 61.8011 51.4495 63.9367C42.5653 73.9315 33.5101 83.8409 24.5405 93.7503C19.6712 99.1321 18.5607 100.67 23.0882 96.9964C46.1531 81.3635 63.0674 81.3635 86.1324 96.9964C90.6599 100.67 89.5494 99.0467 84.6801 93.7503C75.7104 83.7555 66.6553 73.9315 57.771 63.9367Z" fill="url(#paint6_linear)"/>
<path d="M69.2197 45.4859C67.2549 47.7069 67.2549 50.7823 69.2197 53.0033C78.2748 63.5107 87.0736 74.2743 95.9579 84.9525C100.742 90.676 102.194 92.0428 98.9478 86.661C85.1943 59.0685 85.4506 38.8227 99.5458 11.401C102.877 6.0192 101.425 7.38601 96.4705 13.195C87.4154 24.044 78.4457 34.8931 69.2197 45.4859Z" fill="url(#paint7_linear)"/>
<path d="M129.617 54.0273C130.3 59.4091 134.998 63.2533 142.516 63.2533C146.445 63.2533 151.656 61.801 154.134 59.2383L160.968 65.9869C156.44 70.6853 148.923 72.9918 142.345 72.9918C127.396 72.9918 118.597 63.7658 118.597 49.9269C118.597 36.7713 127.566 27.2891 141.576 27.2891C156.013 27.2891 165.068 36.2588 163.445 54.0273H129.617ZM153.194 45.143C152.511 39.5049 148.069 36.6859 142.003 36.6859C136.194 36.6859 131.496 39.5049 129.873 45.143H153.194Z" fill="#130046"/>
<path d="M194.716 28.5713H207.53V28.913L193.349 49.8423L208.469 71.5404V71.7967H195.655L186.259 57.3597L176.862 71.7967H164.048V71.5404L179.168 49.8423L164.988 28.913V28.5713H177.801L186.344 43.1791L194.716 28.5713Z" fill="#130046"/>
<path d="M225.719 16.4419C225.719 24.8136 213.076 24.8136 213.076 16.4419C213.076 8.07016 225.719 8.07016 225.719 16.4419ZM214.016 28.4015V71.7977H224.779V28.4015H214.016Z" fill="#130046"/>
<path d="M241.357 28.5734L242.126 33.6135C245.458 28.2317 249.9 27.4629 254.342 27.4629C258.784 27.4629 263.141 29.2568 265.447 31.5633L260.663 40.8747C258.442 38.9954 256.477 38.0557 252.975 38.0557C247.337 38.0557 242.211 41.0456 242.211 48.9902V71.7988H231.533V28.5734H241.357Z" fill="#130046"/>
<path d="M301.749 28.5741H312V71.7995H301.92L301.407 65.478C298.93 70.6035 292.181 72.9955 287.398 73.0809C274.584 73.1663 265.102 65.3072 265.102 50.1014C265.102 35.1519 275.011 27.3782 287.654 27.4636C293.463 27.4636 298.93 30.1972 301.407 34.4685L301.749 28.5741ZM275.78 50.1868C275.78 58.4731 281.503 63.3424 288.594 63.3424C305.422 63.3424 305.422 37.1167 288.594 37.1167C281.503 37.1167 275.78 41.9005 275.78 50.1868Z" fill="#130046"/>
<defs>
<linearGradient id="paint0_linear" x1="54.5796" y1="36.6249" x2="54.5796" y2="6.05186" gradientUnits="userSpaceOnUse">
<stop stop-color="#31CECD"/>
<stop offset="0.916667" stop-color="#31CECD" stop-opacity="0"/>
</linearGradient>
<linearGradient id="paint1_linear" x1="41.371" y1="49.0796" x2="0.114719" y2="49.0796" gradientUnits="userSpaceOnUse">
<stop stop-color="#EB1976"/>
<stop offset="0.885417" stop-color="#EB1976" stop-opacity="0"/>
</linearGradient>
<linearGradient id="paint2_linear" x1="54.5797" y1="62.3352" x2="54.5797" y2="92.9083" gradientUnits="userSpaceOnUse">
<stop stop-color="#FB9D19"/>
<stop offset="0.869792" stop-color="#FB9D19" stop-opacity="0"/>
</linearGradient>
<linearGradient id="paint3_linear" x1="67.7827" y1="49.0796" x2="109.039" y2="49.0796" gradientUnits="userSpaceOnUse">
<stop stop-color="#177AE2"/>
<stop offset="0.901042" stop-color="#177AE2" stop-opacity="0"/>
</linearGradient>
<linearGradient id="paint4_linear" x1="54.5725" y1="36.6285" x2="54.5725" y2="-0.043756" gradientUnits="userSpaceOnUse">
<stop stop-color="#31CECD"/>
<stop offset="0.9375" stop-color="#31CECD" stop-opacity="0"/>
</linearGradient>
<linearGradient id="paint5_linear" x1="41.3745" y1="49.0366" x2="7.82098" y2="49.0366" gradientUnits="userSpaceOnUse">
<stop stop-color="#EB1976"/>
<stop offset="0.880208" stop-color="#EB1976" stop-opacity="0"/>
</linearGradient>
<linearGradient id="paint6_linear" x1="54.5725" y1="62.3352" x2="54.5725" y2="99.0075" gradientUnits="userSpaceOnUse">
<stop stop-color="#FB9D19"/>
<stop offset="0.848958" stop-color="#FB9D19" stop-opacity="0"/>
</linearGradient>
<linearGradient id="paint7_linear" x1="67.7816" y1="49.0373" x2="101.335" y2="49.0373" gradientUnits="userSpaceOnUse">
<stop stop-color="#177AE2"/>
<stop offset="0.901042" stop-color="#177AE2" stop-opacity="0"/>
</linearGradient>
</defs>
</svg>
