<svg width="150" height="48" viewBox="0 0 150 48" fill="none" xmlns="http://www.w3.org/2000/svg">
<path d="M28.1505 17.2345C27.0002 18.0973 25.3569 18.0973 24.2066 17.2345C18.7016 13.2085 13.0733 9.26458 7.52721 5.27959C4.5282 3.10223 3.78872 2.486 6.6234 3.96496C20.8379 10.1684 31.5604 10.1684 45.8159 3.96496C48.6506 2.486 47.9111 3.14331 44.9121 5.27959C39.3249 9.26458 33.6966 13.2085 28.1505 17.2345Z" fill="url(#paint0_linear)"/>
<path d="M18.9887 25.2878C20.139 24.5073 20.0979 23.398 18.9887 22.5764C13.5658 18.7968 8.22513 14.894 2.84335 11.0323C-0.0324074 8.93707 -0.895136 8.44408 1.03573 10.3749C9.4576 20.2347 9.62193 27.3419 1.40547 37.3249C-0.484313 39.2558 0.337333 38.7628 3.17201 36.7087C8.43055 32.8881 13.648 29.0263 18.9887 25.2878Z" fill="url(#paint1_linear)"/>
<path d="M28.1505 30.8737C27.0002 30.011 25.3569 30.011 24.2066 30.8737C18.7016 34.8998 13.0733 38.8437 7.52721 42.8287C4.5282 44.9649 3.78872 45.6223 6.6234 44.1433C20.8379 37.9399 31.5604 37.9399 45.8159 44.1433C48.6506 45.6223 47.9111 44.9649 44.9121 42.8287C39.3249 38.8437 33.6966 34.8998 28.1505 30.8737Z" fill="url(#paint2_linear)"/>
<path d="M33.4086 22.5764C32.2583 23.357 32.2583 24.5073 33.4086 25.2878C38.7493 29.0263 43.9668 32.8881 49.2253 36.7087C52.06 38.7628 52.9227 39.2558 50.9918 37.3249C42.7754 27.3419 42.9808 20.2347 51.3616 10.3749C53.3335 8.44408 52.4708 8.93707 49.554 11.0323C44.1722 14.894 38.8726 18.7968 33.4086 22.5764Z" fill="url(#paint3_linear)"/>
<path d="M27.7392 17.1119C26.8354 18.1389 25.6029 18.1389 24.6991 17.1119C20.4265 12.3052 16.0718 7.53968 11.7582 2.77414C9.41649 0.185952 8.88242 -0.553529 11.0598 1.21301C22.152 8.73107 30.2863 8.73107 41.3785 1.21301C43.5559 -0.553529 43.0218 0.227034 40.6801 2.77414C36.3665 7.53968 32.0118 12.2641 27.7392 17.1119Z" fill="url(#paint4_linear)"/>
<path d="M19.153 25.7393C20.0568 24.6711 20.0568 23.1922 19.153 22.124C14.7161 17.0298 10.4024 11.8124 6.04772 6.63602C3.70603 3.84242 3.00763 3.14402 4.56876 5.77329C11.3473 18.9607 11.4706 28.6561 4.85634 41.9668C3.29521 44.555 3.99361 43.8977 6.29422 41.1452C10.5668 35.9688 14.7983 30.7924 19.153 25.7393Z" fill="url(#paint5_linear)"/>
<path d="M27.7392 30.997C26.8354 29.9699 25.6029 29.9699 24.6991 30.997C20.4265 35.8036 16.0718 40.5691 11.7582 45.3347C9.41649 47.9229 8.88242 48.6624 11.0598 46.8958C22.152 39.3778 30.2863 39.3778 41.3785 46.8958C43.5559 48.6624 43.0218 47.8818 40.6801 45.3347C36.3665 40.5281 32.0118 35.8036 27.7392 30.997Z" fill="url(#paint6_linear)"/>
<path d="M33.2438 22.1246C32.2989 23.1928 32.2989 24.6717 33.2438 25.7399C37.5986 30.793 41.83 35.9694 46.1026 41.1047C48.4032 43.8572 49.1016 44.5145 47.5405 41.9263C40.9262 28.6567 41.0495 18.9202 47.828 5.7328C49.4303 3.14461 48.7319 3.80193 46.3491 6.59552C41.9944 11.813 37.6807 17.0304 33.2438 22.1246Z" fill="url(#paint7_linear)"/>
<path d="M62.2891 26.2323C62.6178 28.8204 64.8773 30.6692 68.4925 30.6692C70.3823 30.6692 72.8884 29.9708 74.0797 28.7383L77.3663 31.9838C75.189 34.2433 71.5737 35.3525 68.4104 35.3525C61.221 35.3525 56.9895 30.9156 56.9895 24.2603C56.9895 17.9336 61.3031 13.3735 68.0406 13.3735C74.9836 13.3735 79.3383 17.6871 78.5577 26.2323H62.2891ZM73.6278 21.9597C73.2992 19.2483 71.1629 17.8926 68.2461 17.8926C65.4525 17.8926 63.1929 19.2483 62.4124 21.9597H73.6278Z" fill="white"/>
<path d="M93.594 13.9894H99.7564V14.1537L92.9367 24.2189L100.208 34.6538V34.777H94.0459L89.5269 27.8341L85.0078 34.777H78.8455V34.6538L86.117 24.2189L79.2974 14.1537V13.9894H85.4597L89.5679 21.0144L93.594 13.9894Z" fill="white"/>
<path d="M108.507 8.15573C108.507 12.1818 102.427 12.1818 102.427 8.15573C102.427 4.12967 108.507 4.12967 108.507 8.15573ZM102.878 13.9073V34.7771H108.055V13.9073H102.878Z" fill="white"/>
<path d="M116.025 13.9898L116.394 16.4136C117.996 13.8255 120.133 13.4557 122.269 13.4557C124.405 13.4557 126.501 14.3184 127.61 15.4277L125.309 19.9056C124.241 19.0018 123.296 18.5499 121.612 18.5499C118.9 18.5499 116.435 19.9878 116.435 23.8085V34.7774H111.3V13.9898H116.025Z" fill="white"/>
<path d="M145.07 13.9901H150V34.7778H145.152L144.906 31.7377C143.714 34.2026 140.469 35.3529 138.168 35.394C132.006 35.4351 127.446 31.6555 127.446 24.3429C127.446 17.1535 132.211 13.415 138.292 13.4561C141.085 13.4561 143.714 14.7707 144.906 16.8248L145.07 13.9901ZM132.581 24.3839C132.581 28.3689 135.334 30.7106 138.743 30.7106C146.837 30.7106 146.837 18.0984 138.743 18.0984C135.334 18.0984 132.581 20.399 132.581 24.3839Z" fill="white"/>
<defs>
<linearGradient id="paint0_linear" x1="26.2015" y1="17.8626" x2="26.2015" y2="3.15962" gradientUnits="userSpaceOnUse">
<stop stop-color="#31CECD"/>
<stop offset="0.916667" stop-color="#31CECD" stop-opacity="0"/>
</linearGradient>
<linearGradient id="paint1_linear" x1="19.8494" y1="23.8516" x2="0.00867554" y2="23.8516" gradientUnits="userSpaceOnUse">
<stop stop-color="#EB1976"/>
<stop offset="0.885417" stop-color="#EB1976" stop-opacity="0"/>
</linearGradient>
<linearGradient id="paint2_linear" x1="26.2015" y1="30.2268" x2="26.2015" y2="44.9298" gradientUnits="userSpaceOnUse">
<stop stop-color="#FB9D19"/>
<stop offset="0.869792" stop-color="#FB9D19" stop-opacity="0"/>
</linearGradient>
<linearGradient id="paint3_linear" x1="32.5527" y1="23.8516" x2="52.3934" y2="23.8516" gradientUnits="userSpaceOnUse">
<stop stop-color="#177AE2"/>
<stop offset="0.901042" stop-color="#177AE2" stop-opacity="0"/>
</linearGradient>
<linearGradient id="paint4_linear" x1="26.201" y1="17.8632" x2="26.201" y2="0.227035" gradientUnits="userSpaceOnUse">
<stop stop-color="#31CECD"/>
<stop offset="0.9375" stop-color="#31CECD" stop-opacity="0"/>
</linearGradient>
<linearGradient id="paint5_linear" x1="19.8493" y1="23.832" x2="3.71302" y2="23.832" gradientUnits="userSpaceOnUse">
<stop stop-color="#EB1976"/>
<stop offset="0.880208" stop-color="#EB1976" stop-opacity="0"/>
</linearGradient>
<linearGradient id="paint6_linear" x1="26.201" y1="30.2268" x2="26.201" y2="47.863" gradientUnits="userSpaceOnUse">
<stop stop-color="#FB9D19"/>
<stop offset="0.848958" stop-color="#FB9D19" stop-opacity="0"/>
</linearGradient>
<linearGradient id="paint7_linear" x1="32.5522" y1="23.8326" x2="48.6885" y2="23.8326" gradientUnits="userSpaceOnUse">
<stop stop-color="#177AE2"/>
<stop offset="0.901042" stop-color="#177AE2" stop-opacity="0"/>
</linearGradient>
</defs>
</svg>
