<svg width="512" height="512" viewBox="0 0 512 512" fill="none" xmlns="http://www.w3.org/2000/svg">
<g clip-path="url(#clip0)">
<path d="M274.926 189.895C263.692 198.321 247.643 198.321 236.409 189.895C182.645 150.575 127.677 112.058 73.5124 73.1392C44.2232 51.8744 37.0012 45.856 64.6856 60.3C203.509 120.885 308.228 120.885 447.452 60.3C475.136 45.856 467.914 52.2756 438.625 73.1392C384.059 112.058 329.091 150.575 274.926 189.895Z" fill="url(#paint0_linear)"/>
<path d="M185.449 268.546C196.684 260.923 196.283 250.09 185.449 242.065C132.488 205.153 80.3292 167.037 27.7691 129.322C-0.316501 108.859 -8.74217 104.045 10.1153 122.902C92.3659 219.196 93.9708 288.607 13.7263 386.104C-4.72995 404.962 3.2945 400.147 30.9789 380.086C82.3353 342.772 133.291 305.057 185.449 268.546Z" fill="url(#paint1_linear)"/>
<path d="M274.926 323.099C263.692 314.674 247.643 314.674 236.409 323.099C182.645 362.419 127.677 400.937 73.5124 439.855C44.2232 460.719 37.0012 467.138 64.6856 452.694C203.509 392.11 308.228 392.11 447.452 452.694C475.136 467.138 467.914 460.719 438.625 439.855C384.059 400.937 329.091 362.419 274.926 323.099Z" fill="url(#paint2_linear)"/>
<path d="M326.28 242.065C315.045 249.689 315.045 260.923 326.28 268.546C378.439 305.057 429.394 342.772 480.75 380.086C508.435 400.147 516.86 404.962 498.003 386.104C417.758 288.607 419.764 219.196 501.614 122.902C520.873 104.045 512.447 108.859 483.96 129.322C431.4 167.037 379.642 205.153 326.28 242.065Z" fill="url(#paint3_linear)"/>
<path d="M270.91 188.697C262.083 198.727 250.046 198.727 241.219 188.697C199.492 141.754 156.963 95.2121 114.834 48.6703C91.9645 23.3933 86.7486 16.1713 108.013 33.4238C216.343 106.848 295.786 106.848 404.116 33.4238C425.38 16.1713 420.165 23.7945 397.295 48.6703C355.166 95.2121 312.637 141.353 270.91 188.697Z" fill="url(#paint4_linear)"/>
<path d="M187.054 272.955C195.88 262.523 195.88 248.079 187.054 237.647C143.722 187.896 101.593 136.941 59.0636 86.3866C36.1939 59.1034 29.3731 52.2827 44.6196 77.9609C110.821 206.753 112.025 301.442 47.4282 431.438C32.1817 456.715 39.0025 450.295 61.4709 423.413C103.198 372.859 144.524 322.305 187.054 272.955Z" fill="url(#paint5_linear)"/>
<path d="M270.91 324.303C262.083 314.273 250.046 314.273 241.219 324.303C199.492 371.246 156.963 417.788 114.834 464.33C91.9645 489.607 86.7486 496.829 108.013 479.576C216.343 406.152 295.786 406.152 404.116 479.576C425.38 496.829 420.165 489.206 397.295 464.33C355.166 417.387 312.637 371.246 270.91 324.303Z" fill="url(#paint6_linear)"/>
<path d="M324.669 237.653C315.441 248.085 315.441 262.529 324.669 272.961C367.198 322.311 408.524 372.865 450.252 423.018C472.72 449.9 479.541 456.32 464.294 431.043C399.697 301.448 400.901 206.358 467.103 77.5655C482.751 52.2885 475.93 58.7081 452.659 85.9912C410.129 136.946 368.001 187.902 324.669 237.653Z" fill="url(#paint7_linear)"/>
</g>
<defs>
<linearGradient id="paint0_linear" x1="255.891" y1="196.029" x2="255.891" y2="52.4349" gradientUnits="userSpaceOnUse">
<stop stop-color="#31CECD"/>
<stop offset="0.916667" stop-color="#31CECD" stop-opacity="0"/>
</linearGradient>
<linearGradient id="paint1_linear" x1="193.855" y1="254.519" x2="0.084728" y2="254.519" gradientUnits="userSpaceOnUse">
<stop stop-color="#EB1976"/>
<stop offset="0.885417" stop-color="#EB1976" stop-opacity="0"/>
</linearGradient>
<linearGradient id="paint2_linear" x1="255.891" y1="316.781" x2="255.891" y2="460.375" gradientUnits="userSpaceOnUse">
<stop stop-color="#FB9D19"/>
<stop offset="0.869792" stop-color="#FB9D19" stop-opacity="0"/>
</linearGradient>
<linearGradient id="paint3_linear" x1="317.921" y1="254.519" x2="511.691" y2="254.519" gradientUnits="userSpaceOnUse">
<stop stop-color="#177AE2"/>
<stop offset="0.901042" stop-color="#177AE2" stop-opacity="0"/>
</linearGradient>
<linearGradient id="paint4_linear" x1="255.887" y1="196.034" x2="255.887" y2="23.7945" gradientUnits="userSpaceOnUse">
<stop stop-color="#31CECD"/>
<stop offset="0.9375" stop-color="#31CECD" stop-opacity="0"/>
</linearGradient>
<linearGradient id="paint5_linear" x1="193.854" y1="254.328" x2="36.2621" y2="254.328" gradientUnits="userSpaceOnUse">
<stop stop-color="#EB1976"/>
<stop offset="0.880208" stop-color="#EB1976" stop-opacity="0"/>
</linearGradient>
<linearGradient id="paint6_linear" x1="255.887" y1="316.781" x2="255.887" y2="489.022" gradientUnits="userSpaceOnUse">
<stop stop-color="#FB9D19"/>
<stop offset="0.848958" stop-color="#FB9D19" stop-opacity="0"/>
</linearGradient>
<linearGradient id="paint7_linear" x1="317.915" y1="254.334" x2="475.507" y2="254.334" gradientUnits="userSpaceOnUse">
<stop stop-color="#177AE2"/>
<stop offset="0.901042" stop-color="#177AE2" stop-opacity="0"/>
</linearGradient>
<clipPath id="clip0">
<rect width="512" height="512" fill="white"/>
</clipPath>
</defs>
</svg>
