<svg width="320" height="132" viewBox="0 0 320 132" fill="none" xmlns="http://www.w3.org/2000/svg">
<g clip-path="url(#clip0)">
<path d="M56.0543 51.2378C53.6003 53.0783 50.0946 53.0783 47.6406 51.2378C35.8965 42.6489 23.8896 34.2352 12.0578 25.7339C5.65996 21.0889 4.0824 19.7742 10.1297 22.9294C40.4539 36.1634 63.3286 36.1634 93.7405 22.9294C99.7878 19.7742 98.2102 21.1765 91.8123 25.7339C79.893 34.2352 67.886 42.6489 56.0543 51.2378Z" fill="url(#paint0_linear)"/>
<path d="M36.5092 68.4183C38.9632 66.753 38.8756 64.3867 36.5092 62.6339C24.9405 54.5708 13.547 46.2448 2.06582 38.0064C-4.06914 33.5366 -5.90962 32.4849 -1.79044 36.6041C16.1762 57.6383 16.5268 72.8004 -1.00166 94.0974C-5.0332 98.2166 -3.28036 97.1649 2.76696 92.7828C13.9852 84.6321 25.1157 76.3937 36.5092 68.4183Z" fill="url(#paint1_linear)"/>
<path d="M56.0543 80.3347C53.6003 78.4942 50.0946 78.4942 47.6406 80.3347C35.8965 88.9237 23.8896 97.3373 12.0578 105.839C5.65996 110.396 4.0824 111.798 10.1297 108.643C40.4539 95.4092 63.3286 95.4092 93.7405 108.643C99.7878 111.798 98.2102 110.396 91.8123 105.839C79.893 97.3373 67.886 88.9237 56.0543 80.3347Z" fill="url(#paint2_linear)"/>
<path d="M67.2718 62.6339C64.8178 64.2991 64.8178 66.753 67.2718 68.4183C78.6653 76.3937 89.7959 84.6321 101.014 92.7828C107.061 97.1649 108.902 98.2166 104.783 94.0974C87.2543 72.8004 87.6925 57.6383 105.571 36.6041C109.778 32.4849 107.938 33.5366 101.715 38.0064C90.2341 46.2448 78.9282 54.5708 67.2718 62.6339Z" fill="url(#paint3_linear)"/>
<path d="M55.177 50.9761C53.2488 53.1672 50.6196 53.1672 48.6914 50.9761C39.5766 40.7219 30.2866 30.5554 21.0841 20.3889C16.0885 14.8675 14.9492 13.2899 19.5942 17.0585C43.2576 33.0971 60.6108 33.0971 84.2742 17.0585C88.9192 13.2899 87.7799 14.9551 82.7843 20.3889C73.5818 30.5554 64.2918 40.6343 55.177 50.9761Z" fill="url(#paint4_linear)"/>
<path d="M36.8596 69.3813C38.7877 67.1026 38.7877 63.9475 36.8596 61.6688C27.3942 50.8011 18.1918 39.6705 8.90171 28.6276C3.9061 22.6679 2.41619 21.178 5.74659 26.7871C20.2076 54.9203 20.4705 75.6039 6.36009 104C3.02968 109.521 4.5196 108.119 9.42757 102.247C18.5424 91.2042 27.5695 80.1613 36.8596 69.3813Z" fill="url(#paint5_linear)"/>
<path d="M55.177 80.5976C53.2488 78.4066 50.6196 78.4066 48.6914 80.5976C39.5766 90.8518 30.2866 101.018 21.0841 111.185C16.0885 116.706 14.9492 118.284 19.5942 114.515C43.2576 98.4767 60.6108 98.4767 84.2742 114.515C88.9192 118.284 87.7799 116.619 82.7843 111.185C73.5819 100.931 64.2918 90.8518 55.177 80.5976Z" fill="url(#paint6_linear)"/>
<path d="M66.92 61.67C64.9042 63.9487 64.9042 67.1038 66.92 69.3825C76.2101 80.1625 85.2372 91.2054 94.352 102.161C99.26 108.033 100.75 109.435 97.4195 103.914C83.3091 75.6051 83.572 54.8339 98.033 26.7007C101.451 21.1792 99.9612 22.5815 94.8779 28.5412C85.5878 39.6718 76.3854 50.8023 66.92 61.67Z" fill="url(#paint7_linear)"/>
<path d="M128.884 70.433C129.585 75.9545 134.405 79.8984 142.117 79.8984C146.149 79.8984 151.495 78.4085 154.037 75.7792L161.048 82.7029C156.403 87.5233 148.691 89.8896 141.942 89.8896C126.605 89.8896 117.578 80.4242 117.578 66.2262C117.578 52.7293 126.78 43.001 141.153 43.001C155.965 43.001 165.255 52.2034 163.59 70.433H128.884ZM153.073 61.3182C152.372 55.5338 147.814 52.6416 141.592 52.6416C135.632 52.6416 130.812 55.5338 129.146 61.3182H153.073Z" fill="#3D4E71"/>
<path d="M195.667 44.3148H208.814V44.6654L194.265 66.1378L209.778 88.3989V88.6618H196.632L186.991 73.8503L177.35 88.6618H164.204V88.3989L179.717 66.1378L165.168 44.6654V44.3148H178.314L187.079 59.3017L195.667 44.3148Z" fill="#3D4E71"/>
<path d="M227.481 31.8697C227.481 40.4586 214.51 40.4586 214.51 31.8697C214.51 23.2807 227.481 23.2807 227.481 31.8697ZM215.474 44.1396V88.6619H226.517V44.1396H215.474Z" fill="#3D4E71"/>
<path d="M243.519 44.3157L244.308 49.4866C247.726 43.9652 252.283 43.1764 256.841 43.1764C261.398 43.1764 265.868 45.0169 268.234 47.3832L263.326 56.9362C261.047 55.0081 259.032 54.044 255.438 54.044C249.654 54.044 244.395 57.1115 244.395 65.2622V88.6627H233.44V44.3157H243.519Z" fill="#3D4E71"/>
<path d="M305.483 44.3165H316V88.6634H305.658L305.132 82.1779C302.591 87.4364 295.667 89.8904 290.759 89.9781C277.613 90.0657 267.884 82.0026 267.884 66.4023C267.884 51.0649 278.051 43.0895 291.022 43.1771C296.982 43.1771 302.591 45.9817 305.132 50.3638L305.483 44.3165ZM278.84 66.4899C278.84 74.9912 284.712 79.9868 291.986 79.9868C309.252 79.9868 309.252 53.0807 291.986 53.0807C284.712 53.0807 278.84 57.9886 278.84 66.4899Z" fill="#3D4E71"/>
</g>
<defs>
<linearGradient id="paint0_linear" x1="51.8963" y1="52.5777" x2="51.8963" y2="21.2113" gradientUnits="userSpaceOnUse">
<stop stop-color="#31CECD"/>
<stop offset="0.916667" stop-color="#31CECD" stop-opacity="0"/>
</linearGradient>
<linearGradient id="paint1_linear" x1="38.3453" y1="65.3543" x2="-3.98149" y2="65.3543" gradientUnits="userSpaceOnUse">
<stop stop-color="#EB1976"/>
<stop offset="0.885417" stop-color="#EB1976" stop-opacity="0"/>
</linearGradient>
<linearGradient id="paint2_linear" x1="51.8963" y1="78.9546" x2="51.8963" y2="110.321" gradientUnits="userSpaceOnUse">
<stop stop-color="#FB9D19"/>
<stop offset="0.869792" stop-color="#FB9D19" stop-opacity="0"/>
</linearGradient>
<linearGradient id="paint3_linear" x1="65.4459" y1="65.3543" x2="107.773" y2="65.3543" gradientUnits="userSpaceOnUse">
<stop stop-color="#177AE2"/>
<stop offset="0.901042" stop-color="#177AE2" stop-opacity="0"/>
</linearGradient>
<linearGradient id="paint4_linear" x1="51.8955" y1="52.5789" x2="51.8955" y2="14.9551" gradientUnits="userSpaceOnUse">
<stop stop-color="#31CECD"/>
<stop offset="0.9375" stop-color="#31CECD" stop-opacity="0"/>
</linearGradient>
<linearGradient id="paint5_linear" x1="38.3451" y1="65.3124" x2="3.921" y2="65.3124" gradientUnits="userSpaceOnUse">
<stop stop-color="#EB1976"/>
<stop offset="0.880208" stop-color="#EB1976" stop-opacity="0"/>
</linearGradient>
<linearGradient id="paint6_linear" x1="51.8955" y1="78.9546" x2="51.8955" y2="116.578" gradientUnits="userSpaceOnUse">
<stop stop-color="#FB9D19"/>
<stop offset="0.848958" stop-color="#FB9D19" stop-opacity="0"/>
</linearGradient>
<linearGradient id="paint7_linear" x1="65.4446" y1="65.3136" x2="99.8687" y2="65.3136" gradientUnits="userSpaceOnUse">
<stop stop-color="#177AE2"/>
<stop offset="0.901042" stop-color="#177AE2" stop-opacity="0"/>
</linearGradient>
<clipPath id="clip0">
<rect width="320" height="132" fill="white"/>
</clipPath>
</defs>
</svg>
